<svg xmlns="http://www.w3.org/2000/svg" xmlns:xlink="http://www.w3.org/1999/xlink" width="3.813in" height="3.813in" version="1.1" viewBox="0 0 20996 20996" xml:space="preserve" style="shape-rendering:geometricPrecision;text-rendering:geometricPrecision;image-rendering:optimizeQuality;fill-rule:evenodd;clip-rule:evenodd"><defs><style type="text/css">.fil0{fill:#fefefe}.fil1{fill:url(#id0)}</style><linearGradient id="id0" x1="3106.46" x2="17889.7" y1="6233.49" y2="14762.7" gradientUnits="userSpaceOnUse"><stop offset="0" style="stop-opacity:1;stop-color:#0098da"/><stop offset=".6" style="stop-opacity:1;stop-color:#117ac1"/><stop offset="1" style="stop-opacity:1;stop-color:#225ba8"/></linearGradient></defs><g id="Layer_x0020_1"><metadata id="CorelCorpID_0Corel-Layer"/><circle cx="10498" cy="10498" r="10498" class="fil0"/><path d="M11029 1960c4465,275 8001,3988 8001,8530 0,2994 -1537,5628 -3863,7154 -1800,-2165 -3600,-4329 -5400,-6493l0 2895 -2252 0 0 -9466c-2152,1092 -3628,3328 -3628,5910 0,3657 2960,6621 6611,6621 754,0 1478,-126 2153,-359l1295 1557c-1054,467 -2221,727 -3448,727 -4712,0 -8532,-3826 -8532,-8546 0,-4474 3431,-8144 7801,-8515 0,2835 0,5671 0,8506l2179 -2802 2639 0 -2352 3023 3346 4024c955,-1148 1530,-2625 1530,-4236 0,-3479 -2677,-6330 -6080,-6601l0 -1929z" class="fil1"/></g></svg>